# xmcd CD database file generated by OrangeCD 6.2
#
# Track frame offsets:
#	150
#	13193
#	35032
#	53356
#	70245
#	84219
#	98577
#	114234
#	135157
#	148146
#	170689
#	185185
#
# Disc length: 2688 seconds
#
# Revision: 1
# Processed by: cddbd v1.5.2PL0 Copyright (c) Steve Scherf et al.
# Submitted via: OrangeCD 6.2
#
DISCID=9b0a7e0c
DTITLE=The Kingbees - From Memphis to Nashville
DYEAR=2007
DGENRE=Rock
TTITLE0=From Memphis To nashville
TTITLE1=Got You On My Mind
TTITLE2=Hurricane You
TTITLE3=Sunny
TTITLE4=Monday Morning
TTITLE5=Right There With You
TTITLE6=Roll The Dice
TTITLE7=I Believe In Love
TTITLE8=Higher On Love
TTITLE9=Lovestrike
TTITLE10=How're You Doing Without Me
TTITLE11=Honeymoon Jack
EXTD=
EXTT0=
EXTT1=
EXTT2=
EXTT3=
EXTT4=
EXTT5=
EXTT6=
EXTT7=
EXTT8=
EXTT9=
EXTT10=
EXTT11=
PLAYORDER=
